<?xml version="1.0" encoding="utf-8"?>
<!-- Generator: Adobe Illustrator 14.0.0, SVG Export Plug-In . SVG Version: 6.00 Build 43363)  -->
<!DOCTYPE svg PUBLIC "-//W3C//DTD SVG 1.1//EN" "http://www.w3.org/Graphics/SVG/1.1/DTD/svg11.dtd">
<svg version="1.1" id="Слой_1" xmlns="http://www.w3.org/2000/svg" xmlns:xlink="http://www.w3.org/1999/xlink" x="0px" y="0px"
	 width="170.227px" height="186.034px" viewBox="11.433 205.882 170.227 186.034"
	 enable-background="new 11.433 205.882 170.227 186.034" xml:space="preserve">
<g id="XMLID_199_">
	<g id="XMLID_118_">
		<path id="XMLID_128_" fill="#FFFFFF" d="M62.479,250.283h19.143v10.103H62.479V250.283z"/>
		<path id="XMLID_127_" fill="#FFFFFF" d="M62.479,265.437h19.143v10.103H62.479V265.437z"/>
		<path id="XMLID_126_" fill="#FFFFFF" d="M62.479,296.012h19.143v10.104H62.479V296.012z"/>
		<path id="XMLID_124_" fill="#FFFFFF" d="M62.479,280.857h19.143v10.103H62.479V280.857z"/>
		<path id="XMLID_123_" fill="#FFFFFF" d="M62.479,311.166h19.143v10.104H62.479V311.166z"/>
		<path id="XMLID_122_" fill="#FFFFFF" d="M72.05,330.043c1.861-0.266,4.254-0.531,6.115-0.797c1.063,0,2.127-0.267,3.19-0.267
			v-2.658H62.213v4.254C65.669,330.841,68.594,330.309,72.05,330.043z"/>
		<path id="XMLID_121_" fill="#FFFFFF" d="M86.142,326.321h5.849c1.063-0.267,1.861-0.532,2.924-1.063
			c3.988-1.33,7.71-2.925,11.433-4.254H81.622L86.142,326.321z"/>
		<path id="XMLID_120_" fill="#FFFFFF" d="M81.356,235.128h35.626v10.103H81.356l4.786,5.052h30.575v10.103H81.622l4.52,5.051
			h30.575v10.103H81.622l4.52,5.052h30.575v10.103H81.622l4.52,5.052h30.575v10.104H81.622l4.52,5.051h30.575v7.444
			c1.595-0.531,3.19-0.798,4.786-1.329h0.266v-81.888h10.103v78.165c1.595-0.266,3.456-0.531,5.051-0.797v-82.419h-15.154v-2.659
			l-5.052-0.798v3.722h-35.36v-11.698l-5.052-0.797v12.23H62.213v15.154h19.143V235.128z"/>
		<path id="XMLID_119_" fill="#FFFFFF" d="M137.188,226.088v-5.051l-86.408-15.155v5.052l71.253,12.496L137.188,226.088z"/>
	</g>
	<path id="XMLID_117_" fill="#FFFFFF" d="M11.964,307.179c1.063,1.86,1.861,3.456,2.925,5.317
		c3.722,7.178,8.242,13.825,14.357,19.674c3.722,3.457,8.242,6.381,13.027,8.242c5.583,2.127,11.167,2.658,17.016,2.393
		c6.913-0.266,13.56-1.595,20.206-3.722c10.369-3.19,20.472-6.647,30.841-10.104c9.04-3.19,18.345-6.114,27.65-7.976
		c5.849-1.063,9.04-1.861,14.357-2.393c5.583-0.798,14.623-0.798,19.94-0.267c3.19,0.267,5.583,0.532,8.508,1.063
		c0.532,0,1.063,0.532,0.797,1.33c-0.532,2.658-1.063,5.583-1.595,8.241l-0.266,0.267c-2.127-0.267-3.988-0.532-6.115-0.798
		c-2.127-0.267-5.849-0.532-7.976-0.798c-3.722,0-5.317,0-9.04,0.266c-6.646,0.532-13.293,1.596-19.674,3.19
		c-10.635,2.394-21.003,5.85-31.373,8.774c-9.04,2.658-18.079,5.316-27.119,7.443c-6.913,1.596-13.825,2.394-20.738,2.127
		c-4.786-0.266-9.571-1.063-14.357-2.658c-7.71-2.925-14.091-7.444-19.143-14.091c-4.254-5.317-7.71-11.433-10.369-17.813
		c-0.798-1.861-1.329-3.456-2.127-5.317c-0.266-0.532-0.266-1.329-0.266-1.861C11.698,307.179,11.964,307.179,11.964,307.179z"/>
	<path id="XMLID_116_" fill="#FFFFFF" d="M172.283,347.324c-5.583-0.266-10.901-0.531-16.218-0.266
		c-4.254,0-8.508,0.532-12.762,1.33c-4.786,0.797-9.305,1.595-14.091,2.658c-12.762,3.19-25.79,6.646-38.551,9.571
		c-9.571,2.393-19.143,3.988-28.979,3.456c-7.71-0.266-15.154-1.861-22.067-5.583c-7.71-4.254-13.825-10.369-18.611-17.813
		c-2.393-3.988-4.52-7.976-6.647-12.229c-0.266-0.798-1.063-3.723-1.063-5.052c0,0,0.532,1.329,0.798,1.596
		c0.797,1.329,1.595,2.924,2.659,4.254c5.051,7.976,10.9,15.42,19.143,21.003c5.317,3.456,10.9,5.583,17.016,6.381
		c3.456,0.266,7.178,0.532,10.634,0.532c3.722-0.266,7.179-0.798,10.901-1.33c13.293-2.393,26.055-6.912,38.817-10.635
		c6.115-1.86,12.23-3.456,18.345-4.785c9.837-2.393,19.94-3.723,30.309-3.723c4.52,0,10.369,0.267,14.889,0.798
		C176.537,338.551,173.612,344.666,172.283,347.324L172.283,347.324z"/>
	<path id="XMLID_115_" fill="#FFFFFF" d="M167.498,356.099c-2.127,2.658-7.179,10.103-7.71,10.368h-5.849
		c-4.254,0.267-8.242,0.798-12.496,1.33c-7.71,1.329-15.42,2.658-23.131,4.254c-6.646,1.329-13.293,2.924-19.94,4.254
		c-4.786,0.797-9.571,1.595-14.357,2.127c-5.583,0.797-11.167,0.797-16.75,0.797c-5.849-0.266-11.964-1.595-17.547-3.722
		c-2.924-1.329-5.583-2.393-8.242-4.254c-2.127-1.329-3.988-3.19-5.849-4.785c-6.381-6.381-11.433-12.762-15.687-20.738
		c-0.266-0.266-0.266-0.798-0.532-1.329l0.266-0.266c0.266,0.531,0.797,0.797,1.063,1.329c3.19,5.317,7.178,10.103,11.964,14.356
		c6.381,5.85,13.56,9.571,22.067,11.167c4.52,0.798,9.305,1.595,14.091,1.329c5.583-0.531,11.167-1.063,16.484-2.127
		c11.964-2.658,23.663-5.583,35.626-8.508c9.04-2.127,18.345-4.254,27.65-5.317c4.52-0.532,7.179-0.532,11.964-0.798
		C162.446,355.832,165.636,355.832,167.498,356.099L167.498,356.099z"/>
	<path id="XMLID_114_" fill="#FFFFFF" d="M147.823,375.241c-10.901,7.976-22.865,13.027-35.893,15.42
		c-15.42,2.659-30.575,1.063-45.198-4.52c1.33,0.266,2.659,0.531,3.988,0.531c3.456,0,6.913,0.267,10.369,0
		c3.19-0.266,6.381-0.531,9.571-1.063c6.381-1.063,12.496-1.86,18.877-3.189c7.444-1.33,14.623-2.925,22.067-4.521
		c5.052-1.063,10.369-1.86,15.42-2.924h0.532L147.823,375.241L147.823,375.241z"/>
</g>
</svg>
