<svg xmlns="http://www.w3.org/2000/svg" viewBox="0 0 386.56 386.56"><path fill="#fff" d="M346.661 193.48a27.994 27.994 0 003.44-13.32c.56-12-3.6-29.24-10.12-45.56s-15.44-32-24.32-40.88a29.437 29.437 0 00-13.92-8.68 27.996 27.996 0 00-7-12c-8.08-9.08-23.28-18.12-39.36-25.08s-33.48-11.72-46.08-11.72a29.441 29.441 0 00-16 3.72 27.99 27.99 0 00-13.12-3.48c-12-.56-29.24 3.6-45.56 10.12-16.32 6.52-32 15.44-40.88 24.32a29.477 29.477 0 00-8.68 13.92 27.996 27.996 0 00-12 7c-9.08 8.08-18.12 23.28-25.08 39.36-6.96 16.08-11.72 33.48-11.72 46.08a29.441 29.441 0 003.72 16 28 28 0 00-3.64 13.36c-.56 12 3.6 29.24 10.12 45.56s15.44 32 24.32 40.88a29.477 29.477 0 0013.92 8.68 27.996 27.996 0 007 12c8.08 9.08 23.28 18.12 39.36 25.08 16.08 6.96 33.48 11.72 46.08 11.72a29.478 29.478 0 0016-3.72 27.994 27.994 0 0013.32 3.44c12 .56 29.24-3.6 45.56-10.12s32-15.44 40.88-24.32a29.477 29.477 0 008.68-13.92 27.996 27.996 0 0012-7c9.08-8.08 18.12-23.28 25.08-39.36 6.96-16.08 11.72-33.48 11.72-46.08a29.443 29.443 0 00-3.72-16zm-286.36-57c6.24-14.76 14.32-28 21.76-34.76 3.24-2.96 5.76-4.16 7.24-2.96l.28.48 87.52 87.32h-123.4c-2.88 0-4-3.72-4-9.28 0-10.76 4.36-26.04 10.6-40.8zm29.44 151.04c-1.92 1.76-5.28 0-9.28-4-7.64-7.64-15.56-21.6-21.36-36.32-5.8-14.72-9.8-29.92-9.2-40 .2-4.16 1.12-6.96 2.96-7.2h124.24l-87.36 87.52zm96.84 45.36c0 2.88-3.72 4-9.28 4-10.76 0-26-4.2-40.76-10.44-14.76-6.24-28-14.32-34.76-21.76-2.96-3.24-4.16-5.76-2.96-7.24l.44-.44 87.32-87.52v123.4zm0-279.32v123.52l-87.52-87.36c-1.76-1.92 0-5.28 4-9.28 7.64-7.64 21.6-15.56 36.32-21.36 14.72-5.8 29.92-9.8 40-9.2 4.16.2 6.96 1.12 7.2 2.96v.72zm110.32 45.48c1.92-1.76 5.28 0 9.28 4 7.64 7.64 15.52 21.6 21.36 36.32 5.84 14.72 9.64 29.92 9.16 40-.2 4.16-1.12 6.96-2.96 7.2h-124.24l87.4-87.52zm-96.88-45.36c0-2.88 3.72-4 9.28-4 10.76 0 26 4.36 40.76 10.6s28 14.28 34.76 21.76c2.96 3.24 4.16 5.76 2.96 7.24l-.44.44-87.32 87.36V53.68zm83.52 252.48c-7.64 7.64-21.6 15.52-36.32 21.36-14.72 5.84-29.92 9.64-40 9.16-4.16-.2-6.96-1.12-7.2-2.96V209.48l87.52 87.4c1.76 1.92 0 5.28-4 9.28zm42.92-56.12c-6.24 14.76-14.32 28-21.76 34.76-3.24 2.96-5.76 4.16-7.24 2.96l-.44-.44-87.52-87.32h123.4c2.88 0 4 3.72 4 9.28 0 10.76-4.2 26-10.44 40.76z"/><path fill="#fff" d="M193.301 0a192.683 192.683 0 00-136.68 56.6A193.283 193.283 0 000 193.259c-.011 106.746 86.514 193.29 193.259 193.301s193.289-86.514 193.301-193.259S300.047.012 193.301 0zM320.7 320.678c-70.228 70.36-184.198 70.467-254.558.239s-70.468-184.198-.239-254.558 184.198-70.467 254.558-.239a179.282 179.282 0 0152.84 127.16A180 180 0 01320.7 320.678z"/></svg>