<svg height="512" width="512" xmlns="http://www.w3.org/2000/svg"><path d="M472.861 57.245l10.459-10.459a7.5 7.5 0 00-10.606-10.607l-10.459 10.459a7.5 7.5 0 0010.606 10.607zm-58.778-19.954a7.5 7.5 0 007.5-7.5V15c0-4.143-3.358-7.5-7.5-7.5s-7.5 3.357-7.5 7.5v14.791c0 4.143 3.357 7.5 7.5 7.5zm0 121.253c29.294 0 53.126-23.833 53.126-53.127s-23.832-53.126-53.126-53.126-53.126 23.832-53.126 53.126 23.832 53.127 53.126 53.127zm0-91.253c21.023 0 38.126 17.104 38.126 38.126 0 21.023-17.103 38.127-38.126 38.127s-38.126-17.104-38.126-38.127c0-21.022 17.103-38.126 38.126-38.126zm68.125 38.126a7.5 7.5 0 007.5 7.5H504.5c4.142 0 7.5-3.357 7.5-7.5s-3.358-7.5-7.5-7.5h-14.792a7.5 7.5 0 00-7.5 7.5zm-9.347 48.173a7.501 7.501 0 00-10.606 10.607l10.459 10.459a7.5 7.5 0 0010.606-10.607zm-149.196-40.673h14.792c4.142 0 7.5-3.357 7.5-7.5s-3.358-7.5-7.5-7.5h-14.792c-4.142 0-7.5 3.357-7.5 7.5s3.358 7.5 7.5 7.5zM504.5 467.5c-22.578 0-34.456 6.31-44.937 11.876-9.802 5.207-19.06 10.124-37.9 10.124s-28.099-4.917-37.9-10.124c-10.48-5.566-22.359-11.876-44.937-11.876-22.577 0-34.455 6.31-44.935 11.877-9.801 5.206-19.058 10.123-37.898 10.123-18.839 0-28.096-4.917-37.896-10.123-10.48-5.567-22.358-11.877-44.934-11.877-22.577 0-34.455 6.31-44.935 11.877-9.8 5.206-19.058 10.123-37.897 10.123s-28.097-4.917-37.897-10.123C41.954 473.81 30.076 467.5 7.5 467.5c-4.142 0-7.5 3.357-7.5 7.5s3.358 7.5 7.5 7.5c18.839 0 28.097 4.917 37.897 10.123 10.48 5.567 22.358 11.877 44.934 11.877s34.454-6.31 44.934-11.876c9.8-5.207 19.058-10.124 37.897-10.124s28.097 4.917 37.897 10.123c10.48 5.567 22.358 11.877 44.934 11.877 22.577 0 34.455-6.31 44.935-11.877 9.801-5.206 19.058-10.123 37.898-10.123 18.841 0 28.099 4.917 37.9 10.124 10.48 5.566 22.359 11.876 44.937 11.876s34.456-6.31 44.937-11.876c9.802-5.207 19.06-10.124 37.9-10.124 4.142 0 7.5-3.357 7.5-7.5s-3.358-7.5-7.5-7.5zm-97.917-286.456v14.791c0 4.143 3.358 7.5 7.5 7.5s7.5-3.357 7.5-7.5v-14.791c0-4.143-3.358-7.5-7.5-7.5s-7.5 3.357-7.5 7.5zM504.5 421.5c-10.236 0-18.268 1.299-24.972 3.236-14.668-20.855-35.218-36.722-61.188-47.196a7.504 7.504 0 00-9.761 4.15 7.502 7.502 0 004.15 9.762c21.996 8.87 39.59 21.977 52.426 39.017a250.42 250.42 0 00-5.592 2.907c-9.802 5.207-19.06 10.124-37.9 10.124s-28.099-4.917-37.9-10.124c-10.48-5.566-22.359-11.876-44.937-11.876-22.577 0-34.455 6.31-44.935 11.877-9.801 5.206-19.058 10.123-37.898 10.123-14.729 0-23.596-3.01-31.45-6.809 10.463-14.627 24.558-26.799 42.006-36.246 17.543-9.498 60.409-27.233 113.877-18.101 4.088.698 7.955-2.061 8.646-6.144a7.5 7.5 0 00-6.144-8.646c-50.513-8.545-95.063 6.989-113.965 15.17-27.058-21.278-70.23-64.611-81.733-130.896-2.947-17.006-3.582-34.476-1.907-51.996l108.758 28.311c5.147 1.351 10.593-.384 13.984-4.679a13.55 13.55 0 001.314-14.774c-17.483-32.809-48.247-55.418-83.023-61.339 25.055-14.702 50.111-29.405 75.172-44.106 4.69-2.754 7.207-7.814 6.569-13.207a13.552 13.552 0 00-9.52-11.364c-37.354-11.387-77.117-4.469-106.37 18.506-9.168 7.199-17.043 15.779-23.53 25.593-5.849-8.853-13.502-17.731-23.516-25.593-29.248-22.97-69.013-29.888-106.368-18.504a13.55 13.55 0 00-9.511 11.364c-.637 5.393 1.88 10.454 6.572 13.209l36.836 21.613 35.934 21.083a108.538 108.538 0 00-18.709.628c-36.919 4.436-69.93 27.657-88.303 62.116a13.544 13.544 0 001.314 14.772c3.394 4.298 8.823 6.042 13.983 4.686l15.766-4.104c36.357-9.464 72.718-18.93 109.073-28.402-6.348 18.296-12.803 45.278-11.254 76.796a7.5 7.5 0 0014.983-.736c-1.324-26.938 3.683-50.327 9.094-67.11a30.123 30.123 0 0015.229 1.426c-.979 16.296-.096 32.517 2.651 48.376 11.603 66.86 52.967 111.765 81.849 135.764-10.962 6.465-20.66 13.98-29.039 22.483-22.2-15.436-56.56-46.388-72.178-97.472a180.73 180.73 0 01-2.773-10.11 7.496 7.496 0 00-9.061-5.515 7.5 7.5 0 00-5.515 9.06 196.7 196.7 0 003.004 10.95 191.868 191.868 0 0018.542 41.936c-44.994-5.794-81.282 19.855-82.996 21.09-15.607 11.215-27.934 25.938-36.737 43.822-7.666-2.822-17.094-4.901-30.047-4.901-4.142 0-7.5 3.357-7.5 7.5s3.358 7.5 7.5 7.5c18.839 0 28.097 4.917 37.897 10.123 10.48 5.567 22.358 11.877 44.934 11.877s34.454-6.31 44.934-11.876c9.8-5.207 19.058-10.124 37.897-10.124s28.097 4.917 37.897 10.123c10.48 5.567 22.358 11.877 44.934 11.877 22.577 0 34.455-6.31 44.935-11.877 9.801-5.206 19.058-10.123 37.898-10.123 18.841 0 28.099 4.917 37.9 10.124 10.48 5.566 22.359 11.876 44.937 11.876s34.456-6.31 44.937-11.876c9.802-5.207 19.06-10.124 37.9-10.124 4.142 0 7.5-3.357 7.5-7.5s-3.358-7.5-7.5-7.5zM294.484 212.75l-101.079-26.311a30.158 30.158 0 001.816-10.333c0-3.344-.552-6.559-1.557-9.569l9.52-5.586a92.982 92.982 0 0116.103.515c30.988 3.723 58.864 22.803 75.197 51.284zm-159.331-30.892c-35.417 9.227-70.839 18.449-106.256 27.669l-12.392 3.226c16.341-28.483 44.218-47.564 75.199-51.287 14.907-1.79 29.793.016 44.357 5.347a30.193 30.193 0 00-.908 15.045zm-54.871-69.932L46.455 92.077c31.693-8.593 64.898-2.376 89.444 16.902 14.239 11.179 22.984 24.812 28.338 36.832a30.13 30.13 0 00-16.773 5.53c-22.396-13.137-44.79-26.277-67.182-39.415zm84.627 79.491c-8.442 0-15.311-6.869-15.311-15.312s6.869-15.312 15.311-15.312 15.311 6.869 15.311 15.312-6.868 15.312-15.311 15.312zm12.187-53.557c6.271-11.364 14.443-21.081 24.376-28.882 24.55-19.281 57.755-25.501 89.45-16.899-26.061 15.288-52.122 30.58-78.18 45.87l-27.212 15.968c-.97-.902-2-1.739-3.081-2.509a123.007 123.007 0 00-5.353-13.548zm33.993 291.912c-9.043-4.373-20.178-8.272-37.926-8.272-22.577 0-34.455 6.31-44.935 11.877-9.8 5.206-19.058 10.123-37.897 10.123-19.608 0-28.442-5.092-39.172-10.799 7.701-15.51 18.399-28.255 31.886-37.947 1.677-1.208 40.982-29.001 86.168-15.449 15.455 20.547 32.662 35.171 46.101 44.684a126.077 126.077 0 00-4.225 5.783zM355.304 153.59l-10.459 10.459a7.5 7.5 0 0010.606 10.607l10.459-10.459a7.5 7.5 0 00-10.606-10.607zm0-96.345a7.5 7.5 0 0010.606-10.607l-10.459-10.459a7.501 7.501 0 00-10.606 10.607z"/></svg>